<?xml version="1.0" encoding="UTF-8" standalone="no"?><!DOCTYPE svg PUBLIC "-//W3C//DTD SVG 1.1//EN" "http://www.w3.org/Graphics/SVG/1.1/DTD/svg11.dtd"><svg width="100%" height="100%" viewBox="0 0 4892 1925" version="1.1" xmlns="http://www.w3.org/2000/svg" xmlns:xlink="http://www.w3.org/1999/xlink" xml:space="preserve" xmlns:serif="http://www.serif.com/" style="fill-rule:evenodd;clip-rule:evenodd;stroke-linejoin:round;stroke-miterlimit:2;"><rect id="Çalışma-Yüzeyi1" serif:id="Çalışma Yüzeyi1" x="0" y="0" width="4891.664" height="1924.999" style="fill:none;"/><g><path d="M728.977,778.83c-0.665,-7.751 -1.3,-15.309 -1.894,-22.58c-5.833,-66.667 -14.167,-159.167 -18.75,-206.25c-4.583,-47.083 -14.583,-156.667 -22.5,-244.167c-8.333,-87.083 -15.833,-161.25 -17.083,-165c-4.583,-11.667 -19.583,-19.167 -29.583,-15c-17.5,7.917 -21.667,23.75 -34.583,135c-22.083,186.25 -61.667,517.917 -75.417,626.25c-4.583,37.917 -8.333,69.583 -8.333,70.833c0,1.25 -1.667,0.417 -4.167,-2.083c-2.083,-2.083 -6.667,-16.25 -9.583,-30.833c-8.75,-39.583 -47.5,-205.833 -55.417,-236.667c-5.417,-20.833 -9.167,-27.083 -16.667,-30c-10.833,-4.167 -27.917,0.417 -33.75,8.75c-1.667,2.917 -19.167,52.5 -38.75,109.583l-35.417,104.583l-121.667,1.25c-115.417,0.833 -122.083,1.25 -122.083,8.75c0,4.167 -1.25,16.25 -2.5,27.083l-2.917,19.167l137.917,0c75.833,0 140.833,-1.25 144.583,-2.5c9.167,-3.75 20.833,-28.333 33.75,-71.25c5.833,-20 12.917,-44.167 15.833,-53.333l5.417,-16.667l5,11.667c2.5,6.667 16.667,67.5 31.667,135.417c50.417,228.333 49.583,225.833 75,225.833c10.417,0 16.25,-2.5 20.417,-9.583c6.25,-9.167 15,-68.75 42.083,-290.417c7.917,-65.417 17.5,-140.417 20.417,-166.667c3.333,-26.25 11.25,-95.833 17.917,-154.167l11.667,-106.25l4.583,35.417c2.917,19.583 7.083,60.833 9.583,91.667c2.917,30.833 8.75,101.25 13.333,156.25c2.016,24.191 4.757,55.152 7.692,86.928c18.846,-11.635 38.236,-18.761 54.202,-31.014Z" style="fill:#cd2724;"/><path d="M674.776,809.845c3.738,40.47 7.79,82.262 11.058,113.072c5.417,55 15,145 20.417,200c14.167,137.083 22.083,190.417 29.167,197.5c7.917,7.917 31.667,6.667 37.917,-1.667c2.917,-3.75 7.5,-20.417 10,-36.667c2.917,-16.667 21.667,-120.833 42.083,-231.667c20.417,-110.417 37.083,-205 37.083,-209.167c0,-20 7.917,-2.083 30,66.667c27.917,85.417 34.583,97.083 57.083,95.417l15,-1.25l36.25,-72.083c38.333,-77.083 52.5,-98.75 68.333,-105.833c15.833,-7.083 27.917,1.25 50.833,35c24.583,36.25 52.083,64.583 70.833,72.5c10.833,5 45.417,5.833 182.917,5.833c92.917,0 170,-0.833 171.25,-1.667c0.833,-1.25 0.417,-13.333 -1.25,-27.083l-2.917,-25l-161.667,-1.25c-183.75,-1.25 -171.25,1.25 -200,-38.75c-29.583,-40.417 -48.75,-62.917 -62.5,-72.083c-25.833,-17.083 -67.083,-10 -95,17.083c-15,14.167 -44.167,59.167 -59.583,91.25l-9.583,20l-20.417,-57.5c-11.25,-31.25 -26.667,-76.667 -35,-100.833c-7.917,-24.167 -17.5,-46.25 -21.25,-49.167c-11.25,-8.75 -33.333,-6.25 -40.417,4.583c-3.333,5.417 -14.583,56.25 -25,113.333c-31.667,175.833 -49.583,264.583 -52.917,264.583c-1.667,0 -3.333,-8.75 -3.333,-20c0,-10.833 -3.75,-55.417 -8.333,-98.75c-4.08,-38.948 -11.463,-114.55 -16.856,-177.42c-15.966,12.254 -35.356,19.379 -54.202,31.014Z" style="fill:#fff;"/><path d="M756.667,236.25l-24.583,1.667l2.917,46.667c3.75,56.667 12.917,139.583 16.25,142.917c1.25,1.25 18.333,-2.5 37.917,-8.333l35.833,-11.25l0,-14.167c0,-10 2.5,-15.833 7.917,-18.75c6.667,-3.333 7.917,-7.917 6.667,-21.667c-0.417,-10 -2.5,-20.833 -4.167,-24.583c-1.667,-4.167 0,-7.917 3.75,-9.167c10.833,-4.167 7.5,-11.25 -5.417,-11.25c-6.667,0 -14.583,-2.917 -17.5,-6.667c-5.417,-6.667 -2.5,-6.667 33.75,-4.583c50.833,3.333 117.917,15.833 165,30c54.583,16.667 163.75,72.917 164.167,84.167c0,7.5 -7.917,6.667 -10.833,-0.417c-1.25,-3.333 -5.417,-7.083 -8.75,-8.333c-4.167,-1.667 -2.083,3.333 5,12.5l11.667,15.417l-16.25,-8.333c-26.25,-13.75 -85,-31.25 -95.833,-28.75c-5.417,1.667 -14.583,7.5 -20,13.75c-8.333,8.75 -10.417,15 -9.583,30.417c0.833,15.833 -1.25,21.667 -10.833,32.917l-11.25,13.75l9.583,17.5c9.583,17.083 13.75,18.75 30.833,13.333c6.667,-2.083 11.667,0 19.583,7.917c5.833,5.833 10.833,12.5 10.833,14.583c0,2.5 5.417,4.167 12.5,4.167c12.083,0 12.5,-0.417 12.083,-20.833c-0.417,-14.167 -2.917,-22.5 -8.333,-27.5c-6.25,-5.417 -7.917,-12.083 -7.083,-29.583c1.25,-27.917 11.667,-31.667 11.667,-4.167c0,14.583 2.5,20.417 12.083,29.583c10.833,10.417 14.583,11.667 29.167,9.167c20,-2.917 22.5,0.417 4.583,6.25c-14.167,5 -15.833,10.833 -5,18.75c6.667,5.417 6.667,5.417 -0.833,5.833c-5.833,0 -7.083,2.083 -5,10.417c2.083,8.75 0.417,11.25 -12.917,16.667c-11.667,5 -17.5,5.833 -22.917,2.5c-4.167,-2.5 -11.667,-4.583 -17.083,-4.583c-6.25,0 -12.083,-4.583 -16.667,-12.5c-14.167,-23.333 -19.167,-12.083 -9.167,19.583c2.5,7.5 0.833,9.583 -7.083,11.667c-5.417,1.667 -17.5,11.667 -26.25,22.917c-12.083,15 -21.667,22.5 -36.25,27.917l-20,7.083l17.083,17.5c13.333,13.333 16.667,20 15.417,29.167l-1.25,12.083l-32.083,-1.25c-28.75,-1.25 -32.5,-0.833 -32.5,5.833c0,11.667 17.5,62.5 24.583,71.667c6.667,8.333 7.5,7.917 45.417,-22.917c20.833,-17.5 38.333,-33.75 38.333,-36.667c0,-3.333 6.25,-7.083 13.75,-8.333c7.083,-1.667 18.75,-5.833 25.417,-9.167c12.917,-6.667 31.667,-4.167 31.667,4.583c0,2.917 11.25,11.667 25,18.75c24.167,12.917 32.917,26.25 20,30.833c-4.167,1.667 -4.167,2.917 0,7.5c4.583,5 6.667,4.583 11.667,-2.083c3.333,-4.583 5.833,-13.75 5.833,-20c0,-9.583 -4.167,-14.167 -22.917,-26.25c-12.5,-8.333 -22.917,-17.5 -22.917,-20.833c0,-8.75 3.333,-7.917 25.833,5.417c10.833,6.25 25,19.167 31.667,27.917c24.167,32.083 36.667,45 41.667,42.083c6.667,-3.75 6.25,-24.583 0,-30.833c-3.333,-3.333 -3.75,-6.25 -0.833,-9.167c6.25,-6.25 17.5,-0.833 15.833,7.5c-0.833,3.75 4.167,13.75 10.833,21.667c10.417,12.083 15.417,14.583 30.417,14.583c9.583,0.417 20,1.667 22.5,3.333c2.5,1.667 5.833,1.25 7.5,-1.25c3.75,-6.25 14.583,-5 17.083,1.667c1.25,2.917 -0.833,16.25 -4.583,29.167l-6.667,23.333l-26.25,0c-14.167,0 -35,-2.917 -45.417,-6.667c-20.833,-7.083 -33.333,-5.417 -30,3.333c6.25,15.833 15.833,16.667 164.167,16.25c79.167,-0.417 144.583,-1.25 145,-2.083c2.917,-2.5 -17.083,-73.75 -30.417,-110c-56.667,-150.833 -154.583,-275.417 -286.25,-362.5c-74.167,-49.583 -142.5,-79.167 -234.167,-100.833c-77.917,-18.75 -136.25,-23.333 -224.583,-17.917Zm45.833,63.333c-1.25,2.083 -6.25,2.917 -10.833,1.667c-11.667,-2.917 -10.417,-5.417 2.5,-5.417c5.833,0 9.583,1.667 8.333,3.75Zm365.833,137.083c4.167,6.667 -4.583,14.167 -13.75,11.25c-14.167,-4.583 -10.417,-10.833 8.75,-14.167c1.667,0 3.75,1.25 5,2.917Z" style="fill:#fff;fill-rule:nonzero;"/><path d="M1750,261.667l0,546.667l114.167,0c62.917,0 128.75,-2.083 146.667,-4.583c102.5,-14.167 169.167,-71.667 200.417,-172.917c5.833,-19.583 7.5,-38.333 7.5,-95.417c0,-62.917 -1.25,-74.167 -9.583,-100c-30.417,-90.417 -85.417,-143.333 -170,-162.917c-21.667,-5 -60.833,-7.083 -158.75,-8.75l-130.417,-2.083Zm288.75,96.25c55.833,28.333 83.75,76.667 89.167,154.583c6.667,97.083 -26.25,167.5 -93.75,200.833l-27.917,13.75l-82.083,1.25l-82.5,1.667l0,-389.167l84.583,1.25l84.583,1.667l27.917,14.167Z" style="fill:#fff;fill-rule:nonzero;"/><path d="M490.833,309.583c-70.417,36.25 -92.083,50.833 -151.25,100c-117.5,98.75 -206.667,244.167 -241.25,393.333l-5.833,26.25l199.583,0l5.417,-13.75c3.333,-7.083 16.25,-43.75 29.167,-80.833c31.25,-92.083 39.583,-106.667 66.667,-120.833c15,-7.917 46.25,-8.333 66.25,-0.833c12.083,4.167 16.25,4.167 21.667,-0.417c5,-4.167 7.917,-4.167 11.25,-0.833c10.833,10.833 14.583,3.75 21.25,-42.083c7.5,-49.167 8.75,-69.583 4.583,-69.583c-1.25,0 -6.25,4.583 -10.833,10.417c-12.917,16.667 -21.25,13.75 -17.917,-5.833c2.917,-17.917 0.417,-20.833 -19.167,-23.333c-10.833,-1.667 -14.167,0.833 -25.833,17.5c-7.5,10.833 -21.25,28.75 -30.833,40.417c-9.583,11.667 -21.667,28.333 -26.667,36.667c-5.417,8.75 -11.25,15.833 -13.333,15.833c-3.75,0 -2.083,-20.833 2.917,-33.75c1.667,-3.333 -0.833,-10.417 -5.833,-16.25c-8.75,-10 -10,-13.333 -8.333,-27.083c2.083,-22.917 67.5,-67.083 83.75,-57.083c6.25,4.167 7.917,3.75 7.917,-0.833c0,-3.333 7.917,-11.667 17.917,-18.75c9.583,-6.667 22.917,-17.917 29.583,-25c13.75,-14.167 19.167,-16.25 19.167,-6.667c0,7.083 10.833,8.333 15,1.667c1.25,-2.5 0.833,-6.25 -1.667,-8.75c-3.333,-3.333 -2.5,-6.25 1.667,-10.417c7.5,-7.917 7.5,-17.917 -0.417,-17.917c-7.917,0 -56.667,33.75 -54.167,37.5c1.25,1.667 -0.833,5.417 -3.75,7.917c-6.25,5 -10,2.083 -8.333,-7.083c0.417,-2.5 0.833,-7.083 1.25,-9.167c0,-2.5 3.333,-4.167 6.667,-4.167c3.333,0 6.25,-1.25 6.25,-3.333c0,-1.667 8.333,-7.5 18.333,-12.917c10.417,-5 19.583,-12.083 20.833,-15.417c1.25,-3.333 5.833,-5.833 10.417,-5.833c8.75,0 9.167,-1.25 16.667,-51.25c2.5,-17.917 2.083,-23.75 -2.083,-23.75c-2.5,0 -28.333,11.667 -56.667,26.25Z" style="fill:#fff;fill-rule:nonzero;"/><path d="M945,323.75c-12.083,2.917 -8.75,7.5 10.417,12.917c9.583,2.917 20,6.25 22.917,7.917c4.167,1.667 5.417,-1.25 4.167,-9.583c-1.25,-10.417 -2.917,-12.083 -15.833,-12.917c-7.917,0 -17.917,0.417 -21.667,1.667Z" style="fill:#fff;fill-rule:nonzero;"/><path d="M2425,404.583c-92.5,17.917 -156.667,112.917 -147.917,217.5c5,60.833 22.083,101.667 57.917,138.333c49.167,50 123.75,67.083 207.5,47.5c39.167,-9.167 73.333,-28.333 91.25,-50.833l9.167,-12.083l-24.583,-24.583c-13.333,-13.333 -26.25,-24.583 -28.75,-24.583c-2.5,0 -10,5.833 -17.083,12.917c-6.667,7.083 -21.25,17.917 -32.917,23.75c-17.917,9.583 -26.25,11.25 -56.25,11.25c-29.583,0 -38.75,-1.667 -55.417,-10.417c-23.333,-11.667 -40,-30.833 -55,-62.917c-18.75,-40.417 -31.25,-37.083 142.083,-37.083l152.917,0l-2.917,-39.167c-5.417,-81.25 -41.25,-144.167 -97.917,-173.333c-36.25,-18.333 -96.25,-25.417 -142.083,-16.25Zm96.25,75c20.833,10.417 38.75,32.5 49.167,60c5,12.5 8.75,25 8.75,27.083c0,2.5 -40.833,4.167 -106.25,4.167l-106.25,0l0,-9.583c0,-18.333 25.833,-62.5 43.75,-75c29.583,-20.417 78.333,-23.333 110.833,-6.667Z" style="fill:#fff;fill-rule:nonzero;"/><path d="M2909.583,404.167c-28.75,6.25 -52.917,18.75 -73.75,38.333l-19.167,18.75l0,-17.083c0,-36.25 0,-36.25 -45.417,-35l-40,1.25l-1.25,271.667l-0.833,272.083l87.5,0l0.417,-92.917c0.417,-50.833 0,-95.417 -0.417,-98.75c-0.417,-3.75 4.583,-1.25 13.333,6.667c32.5,30.417 57.5,41.25 102.5,45.833c48.333,4.167 94.167,-10.833 130,-42.917c40.833,-36.667 62.5,-92.083 62.5,-160c0,-49.583 -5.417,-75.417 -25,-114.583c-20.417,-41.667 -50.833,-71.667 -86.25,-85c-26.667,-10 -77.917,-14.167 -104.167,-8.333Zm50.833,71.25c23.333,6.25 52.5,37.917 64.583,68.75c13.333,34.167 13.75,93.75 0.833,126.667c-23.333,59.583 -73.333,85.833 -130.833,69.167c-18.75,-5.417 -27.083,-10.833 -42.083,-27.5c-26.667,-29.583 -34.167,-53.75 -34.167,-110.417c0,-43.333 0.833,-47.083 13.75,-71.667c14.583,-28.333 34.167,-46.667 57.917,-54.167c20.417,-6.25 48.75,-6.667 70,-0.833Z" style="fill:#fff;fill-rule:nonzero;"/><path d="M3355,407.917c-24.583,8.75 -32.5,14.167 -60,43.75l-20,21.25l0,-64.583l-79.167,0l0,400l83.333,0l0,-107.917c0,-59.167 1.25,-116.25 2.5,-127.083c3.75,-25.833 24.583,-59.583 46.667,-75.417c15.833,-10.833 22.5,-12.5 51.25,-14.167l33.333,-1.25l-1.25,-40.417l-1.25,-40l-16.667,-0.833c-9.167,-0.833 -26.667,2.083 -38.75,6.667Z" style="fill:#fff;fill-rule:nonzero;"/><path d="M3585,405.833c-85.417,19.583 -137.917,84.167 -145.833,180c-10,120.833 55.833,210.417 167.083,226.667c70,10.417 139.167,-8.333 182.5,-49.167c8.333,-8.333 15.417,-17.083 15.417,-19.583c0,-2.5 -10.833,-15.417 -24.167,-28.333l-24.167,-24.167l-18.75,17.083c-50.417,46.25 -122.917,50 -170.833,9.167c-18.333,-15.417 -34.583,-44.583 -39.167,-68.75l-2.917,-15.417l304.167,0l-2.083,-36.667c-6.667,-120.833 -70,-189.167 -180.417,-194.583c-21.667,-1.25 -45,0.417 -60.833,3.75Zm92.083,70.833c25.833,11.667 40.417,28.333 51.667,58.75c14.583,38.333 22.5,35.417 -97.917,35.417l-106.667,0l2.917,-11.667c5.417,-22.083 21.667,-53.333 34.583,-65.417c29.167,-27.5 77.917,-34.583 115.417,-17.083Z" style="fill:#fff;fill-rule:nonzero;"/><path d="M4057.083,404.167c-24.583,6.25 -40.833,15.833 -62.083,36.667l-20,19.167l0,-51.667l-83.333,0l0,400.417l42.917,-1.25l42.5,-1.25l4.167,-266.667l11.25,-22.917c15.417,-30.417 33.75,-42.917 67.5,-45c32.083,-2.083 50,8.333 65,38.75c10.417,20.833 10.417,21.25 11.667,159.167l1.25,138.75l82.5,0l1.25,-134.583c1.25,-117.917 2.083,-136.25 8.75,-150.833c15.833,-35.417 41.25,-52.083 79.167,-52.083c27.917,0 47.083,11.667 59.167,35.417c7.917,15.417 8.333,26.25 9.583,157.083c0.833,106.667 2.5,140.417 6.25,142.083c2.917,1.25 22.083,1.667 42.5,1.25l37.5,-0.417l0,-316.667l-12.083,-24.167c-24.167,-47.083 -62.917,-67.5 -123.75,-64.583c-44.167,2.083 -74.167,15.417 -100.417,44.583l-17.5,19.583l-12.917,-18.75c-19.167,-27.917 -49.583,-42.5 -92.083,-44.167c-17.917,-1.25 -40,0 -48.75,2.083Z" style="fill:#fff;fill-rule:nonzero;"/><path d="M518.333,426.25c-6.667,5.417 -18.333,13.333 -25.417,17.083c-16.25,8.333 -17.5,13.333 -3.333,16.667c6.25,1.667 10.417,5.833 10.417,10.417c0,9.167 20.417,20 22.5,11.667c3.333,-9.583 10.417,-62.917 9.167,-64.167c-0.833,-0.833 -6.667,2.917 -13.333,8.333Z" style="fill:#fff;fill-rule:nonzero;"/><path d="M852.917,444.167c-1.25,1.667 -12.083,2.5 -23.75,2.083c-11.25,0 -20.833,1.25 -20.833,2.917c0,2.083 5.417,8.333 11.667,14.583c10.417,10 12.917,10.833 25.833,7.083c7.917,-2.5 18.333,-7.083 22.5,-10.417c6.667,-5 7.083,-7.083 2.5,-12.5c-5.417,-6.667 -13.333,-8.333 -17.917,-3.75Z" style="fill:#fff;fill-rule:nonzero;"/><path d="M943.75,525c-4.167,7.083 1.667,20 13.75,30c10.417,8.75 11.667,12.083 10.833,35.833c-0.833,23.333 0,26.25 5.833,23.75c4.167,-1.667 12.917,-4.583 20,-6.667c7.5,-2.083 15,-6.25 17.5,-9.167c5.833,-7.083 -0.833,-22.5 -11.667,-25.833c-5.417,-1.667 -9.583,-7.5 -11.25,-15.417c-1.25,-6.667 -5.417,-13.333 -9.167,-15c-3.75,-1.25 -10,-6.667 -14.167,-12.083c-7.917,-10 -17.5,-12.5 -21.667,-5.417Z" style="fill:#fff;fill-rule:nonzero;"/><path d="M930.833,561.667c-7.083,0.833 -8.333,3.75 -7.917,16.667c0.833,11.25 3.333,15.833 8.75,17.083c8.75,1.667 18.333,-10 18.333,-22.917c0,-10 -5.833,-13.333 -19.167,-10.833Z" style="fill:#fff;fill-rule:nonzero;"/><path d="M1094.583,707.917c-2.083,9.167 0.417,13.75 5.833,10.417c5,-2.917 5,-18.333 0,-18.333c-2.083,0 -4.583,3.75 -5.833,7.917Z" style="fill:#fff;fill-rule:nonzero;"/><path d="M1065.417,909.167c-15.417,27.917 -40.417,81.667 -40.417,86.667c0,2.083 13.75,7.5 30.417,12.5c82.917,25 158.333,99.583 185.417,183.333c9.583,30.833 11.25,42.083 11.25,85.417c-0.417,44.583 -1.667,53.75 -12.917,85.417c-14.167,40.833 -52.5,101.25 -76.667,122.083c-9.167,7.917 -16.667,15.417 -16.667,17.083c0,5.417 48.75,-22.083 67.083,-38.75c10.833,-9.167 35.417,-38.333 55.417,-64.167c19.583,-26.25 38.333,-50 42.083,-52.917c15.833,-13.333 36.667,-55.833 41.667,-85.833c5.833,-32.083 26.25,-73.333 60.833,-121.667c15,-21.25 28.75,-55.417 35,-87.917c2.917,-12.5 2.083,-13.75 -4.583,-10.833c-25.417,10.417 -24.167,11.25 -47.083,-32.5l-10.417,-19.583l-90.833,0c-82.5,0 -92.5,-0.833 -114.583,-9.167c-27.083,-10 -64.583,-42.5 -86.667,-75.417l-13.75,-20l-14.583,26.25Z" style="fill:#fff;fill-rule:nonzero;"/><path d="M3320.833,975.417c-39.167,15.833 -47.917,66.25 -16.25,92.917c35.417,29.583 85.833,10.417 90.417,-34.167c4.167,-44.583 -33.75,-74.583 -74.167,-58.75Z" style="fill:#fff;fill-rule:nonzero;"/><path d="M3797.5,987.5c-38.75,15.417 -34.167,80 6.667,92.083c41.25,12.5 73.333,-19.167 62.083,-61.25c-7.917,-27.917 -40.417,-42.5 -68.75,-30.833Z" style="fill:#fff;fill-rule:nonzero;"/><path d="M3963.75,987.5c-12.083,5 -26.25,27.917 -26.25,42.917c0,27.917 23.75,52.917 50,52.917c37.083,0 61.25,-41.25 43.75,-75c-11.25,-21.25 -42.5,-30.833 -67.5,-20.833Z" style="fill:#fff;fill-rule:nonzero;"/><path d="M4503.333,990.833c-12.917,7.5 -24.167,27.917 -24.167,43.333c0,15.417 15.417,36.667 32.083,43.333c19.583,8.333 41.25,4.583 56.667,-10c9.583,-9.167 11.25,-14.167 11.25,-33.333c0,-20 -1.667,-24.167 -14.167,-36.667c-11.667,-11.667 -17.083,-14.167 -32.083,-14.167c-10,0 -23.333,3.333 -29.583,7.5Z" style="fill:#fff;fill-rule:nonzero;"/><path d="M4664.167,997.5c-12.083,12.083 -14.167,17.083 -14.167,33.75c0,36.667 30,59.167 64.167,47.917c21.25,-7.083 31.667,-21.667 31.667,-46.25c0,-17.5 -2.083,-22.083 -14.583,-35c-12.5,-12.5 -17.5,-14.583 -33.75,-14.583c-16.25,0 -21.25,2.083 -33.333,14.167Z" style="fill:#fff;fill-rule:nonzero;"/><path d="M80.417,1030c5.417,105.417 49.167,235.417 111.667,332.917c62.917,97.917 149.167,181.667 247.917,239.583c123.75,72.5 260.833,106.667 405.833,100c94.167,-4.167 174.167,-21.25 252.5,-55c164.583,-70 297.5,-195.833 374.583,-354.583c42.083,-86.25 67.083,-177.083 71.667,-260.833l2.5,-44.583l-63.75,0l0,26.667c0,36.25 -14.167,107.083 -32.083,160.833c-18.333,56.25 -61.667,142.083 -94.167,187.5c-32.5,45 -111.667,124.583 -155,155c-40.417,28.333 -109.583,66.667 -150,82.5c-83.333,32.917 -198.75,50 -286.25,41.667c-90.833,-8.75 -154.167,-27.5 -179.167,-52.917c-12.083,-12.083 -28.333,-43.333 -28.333,-53.333c0,-0.833 4.583,-2.5 10,-3.75c13.333,-3.333 17.083,-14.167 8.333,-23.75c-6.667,-7.5 -6.667,-7.917 2.083,-7.917c12.083,0 24.167,-20.833 27.5,-47.5c3.333,-24.167 10,-33.333 32.083,-44.583c24.167,-12.5 29.583,-23.75 27.5,-57.083c-1.25,-16.25 0,-33.333 2.917,-40.417c3.333,-8.333 4.167,-24.583 2.5,-47.5c-2.083,-31.25 -3.75,-35.833 -13.333,-42.917c-5.833,-4.583 -19.167,-9.167 -29.167,-10.417c-10,-1.25 -21.667,-5 -25.417,-8.333c-5.833,-5.417 -9.167,-5 -25.417,2.083c-42.5,18.75 -73.333,17.083 -98.75,-5.833c-16.25,-15 -24.583,-34.167 -43.75,-103.75c-8.75,-31.667 -12.917,-36.667 -27.5,-33.333c-7.5,1.667 -20.417,-0.417 -34.583,-5.833c-27.5,-10.417 -49.583,-8.75 -62.917,3.75c-9.167,8.333 -11.25,8.75 -22.917,4.167c-9.167,-3.75 -14.167,-4.167 -17.917,-0.417c-4.583,3.75 -6.667,1.25 -10.417,-11.667c-2.917,-8.75 -5,-25.417 -5,-36.667c0,-20.417 -0.417,-21.25 -12.917,-23.75c-7.083,-1.25 -22.5,-2.5 -34.167,-2.5l-21.25,0l21.667,22.083c12.083,12.083 21.667,23.75 21.667,26.25c0,2.5 9.167,14.583 20.417,27.083c16.667,17.917 21.667,21.667 25.833,17.083c8.333,-7.917 12.083,-6.25 18.75,9.583c7.5,18.75 7.5,50 -0.417,61.667c-5,7.917 -5.417,16.25 -2.917,42.917c3.333,32.083 4.167,33.75 33.333,75.417c18.75,26.25 37.917,48.333 51.25,57.5c28.333,20.833 38.333,35.417 52.917,77.083c32.917,91.667 62.917,141.25 102.917,168.333c6.667,4.583 9.583,9.167 7.083,10c-6.25,2.083 -71.25,-35 -105.833,-60.417c-79.167,-57.917 -135.833,-117.917 -188.333,-197.917c-54.167,-82.917 -92.5,-198.333 -100.833,-302.5l-2.917,-34.167l-62.5,0l2.5,42.5Z" style="fill:#fff;fill-rule:nonzero;"/><path d="M1408.333,998.75c0,15 4.167,30.417 8.333,30.417c4.583,0 41.667,-33.333 41.667,-37.917c0,-2.083 -11.25,-3.75 -25,-3.75c-24.583,0 -25,0.417 -25,11.25Z" style="fill:#fff;fill-rule:nonzero;"/><path d="M1750,996.667l0,545l87.5,0l0.833,-211.667c1.25,-203.333 1.667,-210.417 8.333,-192.5c21.25,56.667 88.333,240 134.167,366.667l12.917,35.417l79.167,0l15.417,-43.75c8.75,-24.167 28.75,-80.417 44.583,-125c15.833,-44.583 38.333,-106.667 49.583,-137.5c11.667,-30.833 25.833,-69.583 31.667,-85.417c5.833,-16.25 10.417,-26.25 10.833,-22.917l0,211.25l-0.417,205.417l92.083,0l0,-546.25l-130.833,2.5l-26.25,68.75c-37.5,100 -112.083,307.5 -117.917,328.75c-2.5,9.583 -5.417,17.083 -6.25,16.667c-1.667,-2.083 -113.333,-299.583 -149.583,-399.583l-5.417,-14.583l-65.417,-0.833l-65,-0.417Z" style="fill:#fff;fill-rule:nonzero;"/><path d="M3496.25,1086.25l1.25,57.5l-64.167,2.5l0,70.417l61.667,0l1.667,130c1.667,140.833 2.5,145 26.25,173.333c21.25,25.417 85,37.917 125.833,24.167c32.5,-10.833 35.833,-16.667 28.333,-46.667c-10,-37.917 -8.333,-36.25 -22.917,-28.75c-7.917,4.167 -20.417,6.25 -32.083,5.417c-15.417,-0.833 -20.833,-3.75 -27.917,-12.917c-8.333,-11.25 -8.75,-17.5 -10,-128.333l-1.25,-116.25l83.75,0l0,-70.833l-83.333,0l0,-116.667l-87.917,0l0.833,57.083Z" style="fill:#fff;fill-rule:nonzero;"/><path d="M830.176,1091.045c39.098,-29.316 87.655,-46.691 140.238,-46.691c129.2,0 234.093,104.894 234.093,234.093c0,129.2 -104.894,234.093 -234.093,234.093c-104.891,0 -193.762,-69.136 -223.49,-164.286c9.144,-2.138 12.908,-2.675 17.706,-4.441c27.721,87.233 109.422,150.508 205.784,150.508c119.144,0 215.875,-96.73 215.875,-215.875c0,-119.144 -96.73,-215.875 -215.875,-215.875c-50.868,0 -97.65,17.632 -134.563,47.112c-0.297,-2.066 -0.613,-4.383 -1.936,-8.354c-1.845,-5.535 -1.868,-6.349 -3.738,-10.286Z" style="fill:#cd2724;"/><path d="M2543.75,1141.667c-36.25,7.5 -65,21.667 -90,44.583c-28.75,26.667 -42.917,49.167 -54.167,85c-37.917,121.667 25.833,249.167 136.25,272.5c77.083,16.25 149.167,-0.833 195.833,-46.25c42.5,-41.667 62.917,-98.333 58.75,-164.167c-3.75,-62.5 -17.5,-96.25 -54.583,-136.25c-26.667,-28.75 -53.333,-44.583 -90.417,-53.333c-28.333,-6.667 -74.167,-7.5 -101.667,-2.083Zm97.917,81.25c22.5,11.25 32.5,23.75 48.75,59.167c9.583,20.833 11.25,29.583 11.25,61.667c-0.417,23.75 -2.917,44.167 -7.5,55.833c-9.167,24.583 -33.333,56.25 -50.833,67.5c-18.75,11.25 -64.167,15.417 -87.083,7.917c-21.25,-7.083 -50.417,-34.583 -63.75,-60.417c-10.417,-19.167 -11.25,-25 -11.25,-68.75c0,-41.25 1.25,-50.833 10,-69.583c12.917,-28.75 44.167,-58.333 65.417,-61.667c9.167,-1.667 18.333,-3.333 20.417,-4.583c9.583,-3.75 46.25,3.75 64.583,12.917Z" style="fill:#fff;fill-rule:nonzero;"/><path d="M3026.667,1141.25c-23.75,5.833 -52.917,23.333 -68.75,41.667l-16.25,18.333l0,-55.417l-83.333,0l0,395.833l87.5,0l0,-122.917c0,-132.917 2.083,-147.5 23.75,-176.25c26.25,-35 89.583,-43.75 123.75,-17.083c6.25,4.583 15.417,16.667 20.417,25.833c8.75,16.667 9.167,22.5 10.417,153.75l1.667,136.667l87.5,0l-1.667,-153.333l-1.25,-152.917l-14.167,-28.75c-15.417,-31.25 -35.417,-49.167 -70.417,-61.667c-20.417,-7.5 -74.583,-9.583 -99.167,-3.75Z" style="fill:#fff;fill-rule:nonzero;"/><path d="M3854.583,1142.083c-50.417,10 -108.75,53.75 -128.75,96.667c-29.583,62.917 -28.75,152.083 1.667,212.083c11.667,22.917 49.167,61.667 74.167,76.25c34.583,20.417 95.417,27.917 150,18.75c68.333,-11.25 124.167,-63.75 145.833,-137.083c9.167,-31.667 8.75,-95 -0.833,-130c-24.583,-87.917 -98.333,-142.083 -192.5,-140.833c-17.083,0.417 -39.583,2.083 -49.583,4.167Zm100,81.25c71.667,39.167 82.917,168.75 19.583,230.833c-20,19.583 -44.583,26.667 -79.583,24.167c-43.333,-3.75 -77.083,-31.25 -94.583,-77.083c-7.917,-20.417 -8.75,-30 -7.083,-62.917c1.667,-33.333 3.75,-42.083 15.833,-66.25c30.417,-60 88.75,-79.583 145.833,-48.75Z" style="fill:#fff;fill-rule:nonzero;"/><path d="M4336.667,1143.333c-25.417,6.667 -49.583,23.333 -64.167,42.917c-6.25,8.75 -13.333,17.5 -15.417,20c-2.083,2.5 -2.5,-9.167 -0.833,-28.333l2.917,-32.083l-87.083,0l-0.833,395.833l87.083,0l0,-111.667c0,-61.25 2.083,-119.583 4.583,-130c10.833,-48.333 49.167,-79.167 98.333,-79.167l26.25,0l0,-83.333l-15.417,0.417c-8.75,0 -24.583,2.5 -35.417,5.417Z" style="fill:#fff;fill-rule:nonzero;"/><rect x="3295.833" y="1145.833" width="87.5" height="395.833" style="fill:#fff;fill-rule:nonzero;"/><path d="M4438.333,1300.833c1.25,151.667 1.667,155.833 10.833,175.833c15,32.5 29.167,48.333 54.583,60.417c20.833,9.583 28.333,10.833 71.25,10.833c55.833,0 79.167,-7.917 106.667,-35.833c8.75,-8.75 17.5,-16.25 19.167,-16.25c1.667,0 3.333,10.417 3.333,22.917l0,22.917l83.333,0l0,-395.833l-85.417,0l0.833,115.417c1.25,128.333 -1.25,149.583 -22.083,180.833c-16.667,25.417 -41.25,37.083 -76.667,37.083c-35.833,0 -52.917,-9.167 -66.667,-35.833c-10.417,-20 -10.417,-20 -11.667,-158.75l-1.25,-138.75l-87.917,0l1.667,155Z" style="fill:#fff;fill-rule:nonzero;"/><path d="M1364.167,1312.5c-35.417,37.917 -65.833,91.667 -52.083,91.667c8.75,0 80.833,-110 75,-113.75c-0.833,-0.833 -11.25,9.167 -22.917,22.083Z" style="fill:#fff;fill-rule:nonzero;"/><circle cx="973.425" cy="1276.38" r="81.962" style="fill:#cd2724;"/><path d="M973.425,1114.369c90.557,0 164.078,73.521 164.078,164.078c0,90.557 -73.521,164.078 -164.078,164.078c-90.557,0 -164.078,-73.521 -164.078,-164.078c0,-90.557 73.521,-164.078 164.078,-164.078Zm-0,20.883c-79.031,0 -143.195,64.163 -143.195,143.195c0,79.031 64.163,143.195 143.195,143.195c79.031,0 143.195,-64.163 143.195,-143.195c0,-79.031 -64.163,-143.195 -143.195,-143.195Z" style="fill:#cd2724;"/></g></svg>